<mxfile compressed="false" version="17.4.2" type="device">
<diagram id="a" name="Page-1">
  <mxGraphModel dx="532" dy="766" grid="1" gridSize="10" guides="1" tooltips="1" connect="1" arrows="1" fold="1" page="1" pageScale="1" pageWidth="413" pageHeight="583" math="0" shadow="0">
    <root>
      <mxCell id="0" />
      <mxCell id="1" parent="0" />
      <mxCell id="box1" value="feature_1" style="rounded=0;whiteSpace=wrap;html=1;fillColor=#f5f5f5;strokeColor=#666666;fontColor=#333333;" parent="1" vertex="1">
        <mxGeometry x="380" y="20" width="80" height="20" as="geometry" />
      </mxCell>
    <mxCell id="l13" value="" style="endArrow=none;html=1;rounded=1;exitX=0.5;exitY=0;exitDx=0;exitDy=0;entryX=0;entryY=0.5;entryDx=0;entryDy=0;" edge="1" parent="1" source="b4" target="b5">
      <mxGeometry width="50" height="50" relative="1" as="geometry">
        <mxPoint x="30" y="70" as="sourcePoint" />
        <mxPoint x="60" y="30" as="targetPoint" />
        <Array as="points">
          <mxPoint x="30" y="30" />
        </Array>
      </mxGeometry>
    </mxCell>
      <mxCell id="b5" value="f" style="ellipse;whiteSpace=wrap;html=1;fillColor=#f5f5f5;strokeColor=#666666;fontColor=#333333;" vertex="1" parent="1">
        <mxGeometry x="60" y="20" width="20" height="20" as="geometry" />
      </mxCell>
    <mxCell id="l14" value="" style="endArrow=none;html=1;rounded=1;exitX=1;exitY=0.5;exitDx=0;exitDy=0;entryX=0;entryY=0.5;entryDx=0;entryDy=0;" edge="1" parent="1" source="b5" target="b7">
      <mxGeometry width="50" height="50" relative="1" as="geometry">
        <mxPoint x="80" y="30" as="sourcePoint" />
        <mxPoint x="140" y="30" as="targetPoint" />
      </mxGeometry>
    </mxCell>
      <mxCell id="b7" value="g" style="ellipse;whiteSpace=wrap;html=1;fillColor=#f5f5f5;strokeColor=#666666;fontColor=#333333;" vertex="1" parent="1">
        <mxGeometry x="140" y="20" width="20" height="20" as="geometry" />
      </mxCell>
    <mxCell id="l15" value="" style="endArrow=none;html=1;rounded=1;exitX=1;exitY=0.5;exitDx=0;exitDy=0;entryX=0;entryY=0.5;entryDx=0;entryDy=0;" edge="1" parent="1" source="b7" target="b9">
      <mxGeometry width="50" height="50" relative="1" as="geometry">
        <mxPoint x="160" y="30" as="sourcePoint" />
        <mxPoint x="220" y="30" as="targetPoint" />
      </mxGeometry>
    </mxCell>
      <mxCell id="b9" value="h" style="ellipse;whiteSpace=wrap;html=1;fillColor=#f5f5f5;strokeColor=#666666;fontColor=#333333;" vertex="1" parent="1">
        <mxGeometry x="220" y="20" width="20" height="20" as="geometry" />
      </mxCell>
      <mxCell id="box2" value="main" style="rounded=0;whiteSpace=wrap;html=1;fillColor=#dae8fc;strokeColor=#6c8ebf;" parent="1" vertex="1">
        <mxGeometry x="380" y="50" width="80" height="20" as="geometry" />
      </mxCell>
    <mxCell id="l16" value="" style="endArrow=none;html=1;rounded=1;entryX=0;entryY=0.5;entryDx=0;entryDy=0;" edge="1" parent="1" target="b4">
      <mxGeometry width="50" height="50" relative="1" as="geometry">
        <mxPoint x="0" y="60" as="sourcePoint" />
        <mxPoint x="20" y="60" as="targetPoint" />
      </mxGeometry>
    </mxCell>
      <mxCell id="b4" value="a" style="ellipse;whiteSpace=wrap;html=1;fillColor=#dae8fc;strokeColor=#6c8ebf;" vertex="1" parent="1">
        <mxGeometry x="20" y="50" width="20" height="20" as="geometry" />
      </mxCell>
    <mxCell id="l17" value="" style="endArrow=none;html=1;rounded=1;exitX=1;exitY=0.5;exitDx=0;exitDy=0;entryX=0;entryY=0.5;entryDx=0;entryDy=0;" edge="1" parent="1" source="b4" target="b6">
      <mxGeometry width="50" height="50" relative="1" as="geometry">
        <mxPoint x="40" y="60" as="sourcePoint" />
        <mxPoint x="100" y="60" as="targetPoint" />
      </mxGeometry>
    </mxCell>
      <mxCell id="b6" value="b" style="ellipse;whiteSpace=wrap;html=1;fillColor=#dae8fc;strokeColor=#6c8ebf;" vertex="1" parent="1">
        <mxGeometry x="100" y="50" width="20" height="20" as="geometry" />
      </mxCell>
    <mxCell id="l18" value="" style="endArrow=none;html=1;rounded=1;exitX=1;exitY=0.5;exitDx=0;exitDy=0;entryX=0;entryY=0.5;entryDx=0;entryDy=0;" edge="1" parent="1" source="b9" target="b11">
      <mxGeometry width="50" height="50" relative="1" as="geometry">
        <mxPoint x="240" y="30" as="sourcePoint" />
        <mxPoint x="300" y="60" as="targetPoint" />
        <Array as="points">
          <mxPoint x="290" y="30" />
          <mxPoint x="290" y="60" />
        </Array>
      </mxGeometry>
    </mxCell>
    <mxCell id="l19" value="" style="endArrow=none;html=1;rounded=1;exitX=1;exitY=0.5;exitDx=0;exitDy=0;entryX=0;entryY=0.5;entryDx=0;entryDy=0;" edge="1" parent="1" source="b6" target="b11">
      <mxGeometry width="50" height="50" relative="1" as="geometry">
        <mxPoint x="120" y="60" as="sourcePoint" />
        <mxPoint x="300" y="60" as="targetPoint" />
      </mxGeometry>
    </mxCell>
      <mxCell id="b11" value="c" style="ellipse;whiteSpace=wrap;html=1;fillColor=#f8cecc;strokeColor=#b85450;" vertex="1" parent="1">
        <mxGeometry x="300" y="50" width="20" height="20" as="geometry" />
      </mxCell>
    <mxCell id="l20" value="" style="endArrow=none;html=1;rounded=1;exitX=1;exitY=0.5;exitDx=0;exitDy=0;entryX=0;entryY=0.5;entryDx=0;entryDy=0;" edge="1" parent="1" source="b11" target="b12">
      <mxGeometry width="50" height="50" relative="1" as="geometry">
        <mxPoint x="320" y="60" as="sourcePoint" />
        <mxPoint x="340" y="60" as="targetPoint" />
      </mxGeometry>
    </mxCell>
    <mxCell id="l21" value="" style="endArrow=none;html=1;rounded=1;exitX=1;exitY=0.5;exitDx=0;exitDy=0;entryX=0;entryY=0.5;entryDx=0;entryDy=0;" edge="1" parent="1" source="b10" target="b12">
      <mxGeometry width="50" height="50" relative="1" as="geometry">
        <mxPoint x="280" y="90" as="sourcePoint" />
        <mxPoint x="340" y="60" as="targetPoint" />
        <Array as="points">
          <mxPoint x="330" y="90" />
          <mxPoint x="330" y="60" />
        </Array>
      </mxGeometry>
    </mxCell>
      <mxCell id="b12" value="d" style="ellipse;whiteSpace=wrap;html=1;fillColor=#dae8fc;strokeColor=#6c8ebf;" vertex="1" parent="1">
        <mxGeometry x="340" y="50" width="20" height="20" as="geometry" />
      </mxCell>
    <mxCell id="l22" value="" style="endArrow=none;html=1;rounded=1;exitX=1;exitY=0.5;exitDx=0;exitDy=0;entryX=0;entryY=0.5;entryDx=0;entryDy=0;" edge="1" parent="1" source="b12" target="box2">
      <mxGeometry width="50" height="50" relative="1" as="geometry">
        <mxPoint x="360" y="60" as="sourcePoint" />
        <mxPoint x="380" y="60" as="targetPoint" />
      </mxGeometry>
    </mxCell>
      <mxCell id="box3" value="feature_2" style="rounded=0;whiteSpace=wrap;html=1;fillColor=#fff2cc;strokeColor=#d6b656;" parent="1" vertex="1">
        <mxGeometry x="380" y="80" width="80" height="20" as="geometry" />
      </mxCell>
    <mxCell id="l23" value="" style="endArrow=none;html=1;rounded=1;exitX=0.5;exitY=1;exitDx=0;exitDy=0;entryX=0;entryY=0.5;entryDx=0;entryDy=0;" edge="1" parent="1" source="b6" target="b8">
      <mxGeometry width="50" height="50" relative="1" as="geometry">
        <mxPoint x="110" y="50" as="sourcePoint" />
        <mxPoint x="180" y="90" as="targetPoint" />
        <Array as="points">
          <mxPoint x="110" y="90" />
        </Array>
      </mxGeometry>
    </mxCell>
      <mxCell id="b8" value="u" style="ellipse;whiteSpace=wrap;html=1;fillColor=#fff2cc;strokeColor=#d6b656;" vertex="1" parent="1">
        <mxGeometry x="180" y="80" width="20" height="20" as="geometry" />
      </mxCell>
    <mxCell id="l24" value="" style="endArrow=none;html=1;rounded=1;exitX=1;exitY=0.5;exitDx=0;exitDy=0;entryX=0;entryY=0.5;entryDx=0;entryDy=0;" edge="1" parent="1" source="b8" target="b10">
      <mxGeometry width="50" height="50" relative="1" as="geometry">
        <mxPoint x="200" y="90" as="sourcePoint" />
        <mxPoint x="260" y="90" as="targetPoint" />
      </mxGeometry>
    </mxCell>
      <mxCell id="b10" value="v" style="ellipse;whiteSpace=wrap;html=1;fillColor=#fff2cc;strokeColor=#d6b656;" vertex="1" parent="1">
        <mxGeometry x="260" y="80" width="20" height="20" as="geometry" />
      </mxCell>
      </root>
    </mxGraphModel>
  </diagram>
</mxfile>